<?xml version="1.0" encoding="UTF-8" standalone="no"?>
<!DOCTYPE svg PUBLIC "-//W3C//DTD SVG 1.1//EN" "http://www.w3.org/Graphics/SVG/1.1/DTD/svg11.dtd">
<svg xmlns="http://www.w3.org/2000/svg" version="1.1" viewBox="0 0 512 512">
<path fill="#006600" d="
  M 174.89 65.06
  L 175.99 384.12
  A 1.00 1.00 0.0 0 0 177.00 385.11
  L 416.12 384.06
  A 1.00 1.00 0.0 0 0 417.12 383.06
  L 416.00 161.00
  A 1.01 1.00 89.7 0 0 415.00 160.00
  Q 369.73 159.99 324.46 160.01
  C 309.73 160.01 303.98 154.27 303.99 139.54
  Q 304.02 94.01 303.99 48.50
  C 303.99 36.17 317.22 27.93 328.13 33.77
  Q 329.92 34.73 337.49 41.21
  Q 388.33 84.76 439.15 128.34
  C 445.32 133.63 448.94 137.31 448.39 145.03
  Q 448.00 150.36 448.00 150.51
  Q 448.00 263.43 448.00 376.34
  Q 448.00 389.05 446.73 393.55
  C 443.87 403.72 435.32 412.15 425.00 414.88
  Q 420.99 415.94 411.76 415.98
  Q 398.39 416.04 385.01 415.99
  A 0.99 0.99 0.0 0 0 384.01 416.98
  Q 383.99 428.62 384.00 440.32
  Q 384.01 453.03 382.74 457.54
  C 379.88 467.73 371.33 476.11 361.02 478.88
  Q 356.91 479.99 347.77 479.99
  Q 229.63 480.00 111.50 479.76
  Q 96.34 479.73 87.10 468.64
  C 81.27 461.66 80.01 454.38 80.01 444.58
  Q 79.99 286.04 80.03 127.50
  C 80.03 114.18 88.42 101.74 101.16 97.63
  Q 106.06 96.05 117.63 96.01
  Q 130.30 95.97 142.99 96.01
  A 1.00 0.99 -89.7 0 0 143.99 95.01
  Q 144.01 83.26 144.00 71.44
  Q 143.99 58.78 145.33 54.19
  C 148.24 44.17 156.72 35.85 166.92 33.11
  Q 170.89 32.04 179.81 32.02
  Q 223.91 31.96 268.01 32.02
  Q 275.39 32.03 278.65 33.49
  C 291.46 39.23 290.80 57.83 277.62 62.89
  Q 274.68 64.02 267.26 64.01
  Q 221.57 63.95 175.89 64.06
  A 1.00 1.00 0.0 0 0 174.89 65.06
  Z
  M 387.90 128.02
  A 0.35 0.35 0.0 0 0 388.13 127.40
  L 336.58 83.20
  A 0.35 0.35 0.0 0 0 336.00 83.46
  L 336.00 127.64
  A 0.35 0.35 0.0 0 0 336.35 127.99
  L 387.90 128.02
  Z
  M 167.76 415.08
  C 157.44 412.61 148.68 404.47 145.55 394.51
  Q 143.99 389.53 143.99 376.32
  Q 144.03 252.68 143.97 129.00
  A 1.00 1.00 0.0 0 0 142.97 128.00
  L 111.89 128.00
  A 1.00 1.00 0.0 0 0 110.89 129.00
  L 112.00 447.94
  A 1.00 1.00 0.0 0 0 113.00 448.94
  L 352.11 448.02
  A 0.99 0.99 0.0 0 0 353.10 446.99
  L 352.01 416.94
  A 1.00 0.99 -0.9 0 0 351.01 415.98
  Q 264.97 416.06 178.94 415.95
  Q 171.36 415.94 167.76 415.08
  Z"
/>
</svg>
