<?xml version="1.0" encoding="UTF-8" standalone="no"?>
<!DOCTYPE svg PUBLIC "-//W3C//DTD SVG 1.1//EN" "http://www.w3.org/Graphics/SVG/1.1/DTD/svg11.dtd">
<svg xmlns="http://www.w3.org/2000/svg" version="1.1" viewBox="0 0 512 512">
<g stroke-width="2.00" fill="none" stroke-linecap="butt">
<path stroke="#7c666a" vector-effect="non-scaling-stroke" d="
  M 331.96 159.00
  L 286.04 160.75"
/>
<path stroke="#f8c2a7" vector-effect="non-scaling-stroke" d="
  M 264.11 22.49
  A 3.22 3.22 0.0 0 0 260.89 19.27
  A 3.22 3.22 0.0 0 0 257.67 22.49
  A 3.22 3.22 0.0 0 0 260.89 25.71
  A 3.22 3.22 0.0 0 0 264.11 22.49"
/>
<path stroke="#f8c2a7" vector-effect="non-scaling-stroke" d="
  M 277.18 28.00
  C 272.97 25.28 269.92 31.08 273.06 33.20
  C 291.93 45.97 302.50 63.95 308.84 86.04
  C 310.36 91.34 316.42 88.97 315.64 85.84
  C 310.07 63.51 297.39 41.06 277.18 28.00"
/>
<path stroke="#f8c2a7" vector-effect="non-scaling-stroke" d="
  M 319.66 104.22
  A 3.23 3.23 0.0 0 0 316.43 100.99
  A 3.23 3.23 0.0 0 0 313.20 104.22
  A 3.23 3.23 0.0 0 0 316.43 107.45
  A 3.23 3.23 0.0 0 0 319.66 104.22"
/>
<path stroke="#808e6d" vector-effect="non-scaling-stroke" d="
  M 332.25 182.21
  L 286.25 179.66"
/>
<path stroke="#f5ad52" vector-effect="non-scaling-stroke" d="
  M 398.75 197.04
  Q 399.37 198.47 399.97 199.02
  Q 415.91 213.63 418.51 233.49
  Q 431.27 330.79 444.01 428.09
  Q 445.75 441.34 444.94 446.98
  C 442.00 467.41 423.30 481.48 403.48 483.81
  Q 243.90 502.55 84.32 483.90
  Q 75.13 482.83 64.12 477.32"
/>
<path stroke="#808e6d" vector-effect="non-scaling-stroke" d="
  M 206.74 220.29
  C 212.51 187.80 167.24 178.39 157.77 208.53
  C 156.83 211.53 155.37 217.02 156.03 219.74
  C 157.58 226.17 166.50 226.73 167.94 219.52
  C 169.61 211.10 170.59 204.68 179.88 203.01
  Q 185.64 201.97 189.76 204.69
  C 194.85 208.05 194.89 212.90 194.77 218.77
  C 194.58 227.42 205.48 227.40 206.74 220.29"
/>
<path stroke="#808e6d" vector-effect="non-scaling-stroke" d="
  M 334.99 220.26
  C 340.24 182.99 284.83 180.61 284.24 218.57
  Q 284.18 222.16 285.68 223.99
  C 287.72 226.48 292.50 226.82 294.81 224.16
  C 296.40 222.34 296.34 219.06 296.69 216.67
  C 299.25 198.91 323.51 197.94 323.06 218.52
  C 322.85 228.00 333.96 227.56 334.99 220.26"
/>
<path stroke="#fceaaa" vector-effect="non-scaling-stroke" d="
  M 106.46 232.55
  A 4.92 4.92 0.0 0 0 101.54 227.63
  A 4.92 4.92 0.0 0 0 96.62 232.55
  A 4.92 4.92 0.0 0 0 101.54 237.47
  A 4.92 4.92 0.0 0 0 106.46 232.55"
/>
<path stroke="#808e6d" vector-effect="non-scaling-stroke" d="
  M 246.24 249.06
  C 240.49 248.75 237.84 241.30 236.96 236.68
  Q 236.32 233.34 235.27 232.13
  C 232.15 228.53 224.70 230.29 224.77 235.48
  Q 224.89 244.23 230.60 252.66
  C 235.99 260.62 247.38 263.95 255.83 259.17
  C 263.57 254.80 266.91 244.56 267.44 236.23
  C 268.09 226.02 256.28 226.08 255.80 233.76
  C 255.42 239.71 253.58 249.47 246.24 249.06"
/>
<path stroke="#fb9b6d" vector-effect="non-scaling-stroke" d="
  M 173.1601 248.6621
  A 25.58 19.69 -3.2 0 0 146.5209 230.4307
  A 25.58 19.69 -3.2 0 0 122.0799 251.5179
  A 25.58 19.69 -3.2 0 0 148.7191 269.7493
  A 25.58 19.69 -3.2 0 0 173.1601 248.6621"
/>
<path stroke="#fb9b6d" vector-effect="non-scaling-stroke" d="
  M 368.2876 249.4475
  A 25.58 19.70 -3.3 0 0 341.6160 231.2527
  A 25.58 19.70 -3.3 0 0 317.2124 252.3925
  A 25.58 19.70 -3.3 0 0 343.8840 270.5873
  A 25.58 19.70 -3.3 0 0 368.2876 249.4475"
/>
<path stroke="#808e6d" vector-effect="non-scaling-stroke" d="
  M 265.54 362.90
  C 279.17 357.36 289.58 346.85 293.75 332.74
  C 306.14 290.76 256.70 260.27 221.82 282.10
  C 188.80 302.77 194.60 349.03 229.90 362.81
  A 0.69 0.68 -66.2 0 1 230.26 363.75
  Q 215.09 394.41 200.00 424.88
  C 193.90 437.17 202.33 443.01 214.00 443.01
  Q 247.87 443.02 281.74 442.98
  C 292.92 442.97 301.47 437.72 295.26 424.99
  Q 280.31 394.30 265.25 363.66
  Q 264.98 363.12 265.54 362.90"
/>
<path stroke="#fceaaa" vector-effect="non-scaling-stroke" d="
  M 403.8328 285.4838
  A 6.97 6.73 -2.6 0 0 396.5647 279.0769
  A 6.97 6.73 -2.6 0 0 389.9072 286.1162
  A 6.97 6.73 -2.6 0 0 397.1753 292.5231
  A 6.97 6.73 -2.6 0 0 403.8328 285.4838"
/>
<path stroke="#fceaaa" vector-effect="non-scaling-stroke" d="
  M 125.25 325.78
  Q 131.71 328.11 138.03 329.43
  C 139.49 329.73 140.50 330.99 140.77 332.55
  Q 142.28 341.39 144.65 350.14
  A 0.65 0.65 0.0 0 0 145.87 350.24
  C 148.27 345.03 148.77 336.96 149.85 331.31
  A 2.03 2.00 86.9 0 1 151.21 329.77
  Q 157.13 327.86 162.99 326.10
  Q 165.84 325.23 164.75 323.39
  A 1.38 1.36 82.5 0 0 163.94 322.76
  C 160.34 321.74 150.06 320.03 149.50 316.68
  Q 147.98 307.50 145.58 299.06
  A 0.81 0.81 0.0 0 0 144.01 299.09
  Q 141.93 307.66 140.75 316.10
  C 140.41 318.49 139.17 319.48 137.01 320.05
  Q 130.78 321.69 125.21 324.02
  A 0.95 0.94 -46.4 0 0 125.25 325.78"
/>
<path stroke="#fceaaa" vector-effect="non-scaling-stroke" d="
  M 407.4922 311.1519
  A 6.58 6.58 0.0 0 0 400.0703 305.5388
  L 399.5354 305.6130
  A 6.58 6.58 0.0 0 0 393.9223 313.0349
  L 405.0278 393.0681
  A 6.58 6.58 0.0 0 0 412.4497 398.6812
  L 412.9846 398.6070
  A 6.58 6.58 0.0 0 0 418.5977 391.1851
  L 407.4922 311.1519"
/>
<path stroke="#fceaaa" vector-effect="non-scaling-stroke" d="
  M 337.07 314.43
  A 4.92 4.92 0.0 0 0 332.15 309.51
  A 4.92 4.92 0.0 0 0 327.23 314.43
  A 4.92 4.92 0.0 0 0 332.15 319.35
  A 4.92 4.92 0.0 0 0 337.07 314.43"
/>
<path stroke="#fceaaa" vector-effect="non-scaling-stroke" d="
  M 92.48 319.48
  A 4.93 4.93 0.0 0 0 87.55 314.55
  A 4.93 4.93 0.0 0 0 82.62 319.48
  A 4.93 4.93 0.0 0 0 87.55 324.41
  A 4.93 4.93 0.0 0 0 92.48 319.48"
/>
<path stroke="#fceaaa" vector-effect="non-scaling-stroke" d="
  M 331.09 392.67
  C 335.29 394.97 340.89 395.63 345.53 397.31
  A 1.19 1.17 -86.4 0 1 346.28 398.17
  L 350.31 416.74
  A 0.88 0.88 0.0 0 0 351.85 417.11
  C 353.74 414.80 354.97 402.96 355.52 399.50
  Q 355.60 398.99 356.34 397.57
  Q 356.56 397.13 357.03 396.98
  L 370.48 392.56
  A 1.18 1.18 0.0 0 0 370.83 390.51
  C 367.60 388.01 356.34 388.14 355.52 383.96
  Q 353.89 375.67 351.84 366.68
  A 0.91 0.91 0.0 0 0 350.20 366.38
  C 348.03 369.64 347.14 380.45 346.42 384.75
  A 1.92 1.90 -5.7 0 1 345.21 386.22
  C 341.52 387.62 334.00 389.08 330.98 391.55
  A 0.68 0.68 0.0 0 0 331.09 392.67"
/>
<path stroke="#fceaaa" vector-effect="non-scaling-stroke" d="
  M 82.68 408.91
  L 87.00 428.45
  A 0.61 0.61 0.0 0 0 88.15 428.57
  C 90.59 423.20 91.18 415.28 92.25 409.36
  A 2.03 2.03 0.0 0 1 93.62 407.78
  C 95.80 407.06 107.37 404.06 107.91 402.08
  Q 108.10 401.37 107.39 401.16
  L 93.73 397.15
  A 2.23 2.22 -88.0 0 1 92.18 395.48
  L 88.19 377.06
  A 0.80 0.80 0.0 0 0 86.66 376.94
  C 84.55 382.35 83.93 389.24 82.93 394.99
  Q 82.59 396.91 80.75 397.49
  Q 74.35 399.53 67.91 401.75
  A 1.00 1.00 0.0 0 0 67.60 403.47
  C 70.44 405.79 78.22 406.72 82.10 408.33
  Q 82.59 408.53 82.68 408.91"
/>
<path stroke="#fceaaa" vector-effect="non-scaling-stroke" d="
  M 176.09 386.62
  A 4.91 4.91 0.0 0 0 171.18 381.71
  A 4.91 4.91 0.0 0 0 166.27 386.62
  A 4.91 4.91 0.0 0 0 171.18 391.53
  A 4.91 4.91 0.0 0 0 176.09 386.62"
/>
<path stroke="#fceaaa" vector-effect="non-scaling-stroke" d="
  M 422.5740 418.2740
  A 6.83 6.57 -2.4 0 0 415.4749 411.9958
  A 6.83 6.57 -2.4 0 0 408.9260 418.8460
  A 6.83 6.57 -2.4 0 0 416.0251 425.1242
  A 6.83 6.57 -2.4 0 0 422.5740 418.2740"
/>
<path stroke="#fceaaa" vector-effect="non-scaling-stroke" d="
  M 345.62 456.29
  A 4.93 4.93 0.0 0 0 340.69 451.36
  A 4.93 4.93 0.0 0 0 335.76 456.29
  A 4.93 4.93 0.0 0 0 340.69 461.22
  A 4.93 4.93 0.0 0 0 345.62 456.29"
/>
<path stroke="#fceaaa" vector-effect="non-scaling-stroke" d="
  M 100.4475 468.0494
  A 6.75 6.52 99.4 0 0 107.9825 462.4549
  A 6.75 6.52 99.4 0 0 102.6525 454.7306
  A 6.75 6.52 99.4 0 0 95.1175 460.3251
  A 6.75 6.52 99.4 0 0 100.4475 468.0494"
/>
<path stroke="#fceaaa" vector-effect="non-scaling-stroke" d="
  M 211.7306 468.0832
  A 6.16 6.16 0.0 0 0 205.9924 461.5285
  L 127.5851 456.3207
  A 6.16 6.16 0.0 0 0 121.0304 462.0589
  L 120.9694 462.9768
  A 6.16 6.16 0.0 0 0 126.7076 469.5315
  L 205.1149 474.7393
  A 6.16 6.16 0.0 0 0 211.6696 469.0011
  L 211.7306 468.0832"
/>
<path stroke="#fceaaa" vector-effect="non-scaling-stroke" d="
  M 237.71 469.61
  A 6.48 6.48 0.0 0 0 231.23 463.13
  A 6.48 6.48 0.0 0 0 224.75 469.61
  A 6.48 6.48 0.0 0 0 231.23 476.09
  A 6.48 6.48 0.0 0 0 237.71 469.61"
/>
<path stroke="#187bc1" vector-effect="non-scaling-stroke" d="
  M 269.33 350.84
  A 2.51 2.51 0.0 0 0 272.23 350.98
  C 292.17 338.35 289.21 308.29 276.17 292.36
  C 273.28 288.84 268.46 292.68 271.35 296.42
  C 281.51 309.55 285.14 332.91 270.24 344.51
  C 267.80 346.41 266.35 348.48 269.33 350.84"
/>
<path stroke="#187bc1" vector-effect="non-scaling-stroke" d="
  M 264.0159 381.0626
  A 2.90 2.90 0.0 0 0 260.1405 379.7206
  L 259.9426 379.8167
  A 2.90 2.90 0.0 0 0 258.6006 383.6922
  L 279.1041 425.9174
  A 2.90 2.90 0.0 0 0 282.9795 427.2594
  L 283.1774 427.1633
  A 2.90 2.90 0.0 0 0 284.5194 423.2878
  L 264.0159 381.0626"
/>
</g>
<path fill="#f1854f" d="
  M 226.06 0.00
  L 232.81 0.00
  Q 250.82 0.96 267.15 8.35
  C 306.11 25.99 330.90 58.67 331.67 102.75
  Q 332.03 123.86 331.96 159.00
  L 286.04 160.75
  Q 285.38 131.22 284.61 101.70
  Q 284.33 91.35 282.84 85.59
  C 273.21 48.59 231.70 36.51 200.15 53.45
  C 180.28 64.13 170.25 83.08 169.72 105.82
  C 169.39 119.72 170.64 132.34 152.74 133.88
  Q 142.58 134.76 134.25 132.75
  C 124.51 130.41 125.07 118.41 124.78 110.07
  C 122.64 49.72 166.29 2.69 226.06 0.00
  Z
  M 264.11 22.49
  A 3.22 3.22 0.0 0 0 260.89 19.27
  A 3.22 3.22 0.0 0 0 257.67 22.49
  A 3.22 3.22 0.0 0 0 260.89 25.71
  A 3.22 3.22 0.0 0 0 264.11 22.49
  Z
  M 277.18 28.00
  C 272.97 25.28 269.92 31.08 273.06 33.20
  C 291.93 45.97 302.50 63.95 308.84 86.04
  C 310.36 91.34 316.42 88.97 315.64 85.84
  C 310.07 63.51 297.39 41.06 277.18 28.00
  Z
  M 319.66 104.22
  A 3.23 3.23 0.0 0 0 316.43 100.99
  A 3.23 3.23 0.0 0 0 313.20 104.22
  A 3.23 3.23 0.0 0 0 316.43 107.45
  A 3.23 3.23 0.0 0 0 319.66 104.22
  Z"
/>
<circle fill="#ffffff" cx="260.89" cy="22.49" r="3.22"/>
<path fill="#ffffff" d="
  M 273.06 33.20
  C 269.92 31.08 272.97 25.28 277.18 28.00
  C 297.39 41.06 310.07 63.51 315.64 85.84
  C 316.42 88.97 310.36 91.34 308.84 86.04
  C 302.50 63.95 291.93 45.97 273.06 33.20
  Z"
/>
<circle fill="#ffffff" cx="316.43" cy="104.22" r="3.23"/>
<path fill="#074785" d="
  M 331.96 159.00
  L 332.25 182.21
  L 286.25 179.66
  L 286.04 160.75
  L 331.96 159.00
  Z"
/>
<path fill="#f9d555" d="
  M 286.25 179.66
  L 332.25 182.21
  Q 350.26 183.92 368.25 185.75
  Q 386.13 187.57 398.75 197.04
  Q 399.37 198.47 399.97 199.02
  Q 415.91 213.63 418.51 233.49
  Q 431.27 330.79 444.01 428.09
  Q 445.75 441.34 444.94 446.98
  C 442.00 467.41 423.30 481.48 403.48 483.81
  Q 243.90 502.55 84.32 483.90
  Q 75.13 482.83 64.12 477.32
  Q 54.53 470.75 48.83 461.70
  C 42.62 451.85 42.39 443.03 44.02 430.59
  Q 56.26 337.25 68.48 243.92
  Q 70.33 229.78 72.08 224.29
  C 77.96 205.82 94.48 188.79 114.69 186.45
  Q 200.21 176.54 286.25 179.66
  Z
  M 206.74 220.29
  C 212.51 187.80 167.24 178.39 157.77 208.53
  C 156.83 211.53 155.37 217.02 156.03 219.74
  C 157.58 226.17 166.50 226.73 167.94 219.52
  C 169.61 211.10 170.59 204.68 179.88 203.01
  Q 185.64 201.97 189.76 204.69
  C 194.85 208.05 194.89 212.90 194.77 218.77
  C 194.58 227.42 205.48 227.40 206.74 220.29
  Z
  M 334.99 220.26
  C 340.24 182.99 284.83 180.61 284.24 218.57
  Q 284.18 222.16 285.68 223.99
  C 287.72 226.48 292.50 226.82 294.81 224.16
  C 296.40 222.34 296.34 219.06 296.69 216.67
  C 299.25 198.91 323.51 197.94 323.06 218.52
  C 322.85 228.00 333.96 227.56 334.99 220.26
  Z
  M 106.46 232.55
  A 4.92 4.92 0.0 0 0 101.54 227.63
  A 4.92 4.92 0.0 0 0 96.62 232.55
  A 4.92 4.92 0.0 0 0 101.54 237.47
  A 4.92 4.92 0.0 0 0 106.46 232.55
  Z
  M 246.24 249.06
  C 240.49 248.75 237.84 241.30 236.96 236.68
  Q 236.32 233.34 235.27 232.13
  C 232.15 228.53 224.70 230.29 224.77 235.48
  Q 224.89 244.23 230.60 252.66
  C 235.99 260.62 247.38 263.95 255.83 259.17
  C 263.57 254.80 266.91 244.56 267.44 236.23
  C 268.09 226.02 256.28 226.08 255.80 233.76
  C 255.42 239.71 253.58 249.47 246.24 249.06
  Z
  M 173.1601 248.6621
  A 25.58 19.69 -3.2 0 0 146.5209 230.4307
  A 25.58 19.69 -3.2 0 0 122.0799 251.5179
  A 25.58 19.69 -3.2 0 0 148.7191 269.7493
  A 25.58 19.69 -3.2 0 0 173.1601 248.6621
  Z
  M 368.2876 249.4475
  A 25.58 19.70 -3.3 0 0 341.6160 231.2527
  A 25.58 19.70 -3.3 0 0 317.2124 252.3925
  A 25.58 19.70 -3.3 0 0 343.8840 270.5873
  A 25.58 19.70 -3.3 0 0 368.2876 249.4475
  Z
  M 265.54 362.90
  C 279.17 357.36 289.58 346.85 293.75 332.74
  C 306.14 290.76 256.70 260.27 221.82 282.10
  C 188.80 302.77 194.60 349.03 229.90 362.81
  A 0.69 0.68 -66.2 0 1 230.26 363.75
  Q 215.09 394.41 200.00 424.88
  C 193.90 437.17 202.33 443.01 214.00 443.01
  Q 247.87 443.02 281.74 442.98
  C 292.92 442.97 301.47 437.72 295.26 424.99
  Q 280.31 394.30 265.25 363.66
  Q 264.98 363.12 265.54 362.90
  Z
  M 403.8328 285.4838
  A 6.97 6.73 -2.6 0 0 396.5647 279.0769
  A 6.97 6.73 -2.6 0 0 389.9072 286.1162
  A 6.97 6.73 -2.6 0 0 397.1753 292.5231
  A 6.97 6.73 -2.6 0 0 403.8328 285.4838
  Z
  M 125.25 325.78
  Q 131.71 328.11 138.03 329.43
  C 139.49 329.73 140.50 330.99 140.77 332.55
  Q 142.28 341.39 144.65 350.14
  A 0.65 0.65 0.0 0 0 145.87 350.24
  C 148.27 345.03 148.77 336.96 149.85 331.31
  A 2.03 2.00 86.9 0 1 151.21 329.77
  Q 157.13 327.86 162.99 326.10
  Q 165.84 325.23 164.75 323.39
  A 1.38 1.36 82.5 0 0 163.94 322.76
  C 160.34 321.74 150.06 320.03 149.50 316.68
  Q 147.98 307.50 145.58 299.06
  A 0.81 0.81 0.0 0 0 144.01 299.09
  Q 141.93 307.66 140.75 316.10
  C 140.41 318.49 139.17 319.48 137.01 320.05
  Q 130.78 321.69 125.21 324.02
  A 0.95 0.94 -46.4 0 0 125.25 325.78
  Z
  M 407.4922 311.1519
  A 6.58 6.58 0.0 0 0 400.0703 305.5388
  L 399.5354 305.6130
  A 6.58 6.58 0.0 0 0 393.9223 313.0349
  L 405.0278 393.0681
  A 6.58 6.58 0.0 0 0 412.4497 398.6812
  L 412.9846 398.6070
  A 6.58 6.58 0.0 0 0 418.5977 391.1851
  L 407.4922 311.1519
  Z
  M 337.07 314.43
  A 4.92 4.92 0.0 0 0 332.15 309.51
  A 4.92 4.92 0.0 0 0 327.23 314.43
  A 4.92 4.92 0.0 0 0 332.15 319.35
  A 4.92 4.92 0.0 0 0 337.07 314.43
  Z
  M 92.48 319.48
  A 4.93 4.93 0.0 0 0 87.55 314.55
  A 4.93 4.93 0.0 0 0 82.62 319.48
  A 4.93 4.93 0.0 0 0 87.55 324.41
  A 4.93 4.93 0.0 0 0 92.48 319.48
  Z
  M 331.09 392.67
  C 335.29 394.97 340.89 395.63 345.53 397.31
  A 1.19 1.17 -86.4 0 1 346.28 398.17
  L 350.31 416.74
  A 0.88 0.88 0.0 0 0 351.85 417.11
  C 353.74 414.80 354.97 402.96 355.52 399.50
  Q 355.60 398.99 356.34 397.57
  Q 356.56 397.13 357.03 396.98
  L 370.48 392.56
  A 1.18 1.18 0.0 0 0 370.83 390.51
  C 367.60 388.01 356.34 388.14 355.52 383.96
  Q 353.89 375.67 351.84 366.68
  A 0.91 0.91 0.0 0 0 350.20 366.38
  C 348.03 369.64 347.14 380.45 346.42 384.75
  A 1.92 1.90 -5.7 0 1 345.21 386.22
  C 341.52 387.62 334.00 389.08 330.98 391.55
  A 0.68 0.68 0.0 0 0 331.09 392.67
  Z
  M 82.68 408.91
  L 87.00 428.45
  A 0.61 0.61 0.0 0 0 88.15 428.57
  C 90.59 423.20 91.18 415.28 92.25 409.36
  A 2.03 2.03 0.0 0 1 93.62 407.78
  C 95.80 407.06 107.37 404.06 107.91 402.08
  Q 108.10 401.37 107.39 401.16
  L 93.73 397.15
  A 2.23 2.22 -88.0 0 1 92.18 395.48
  L 88.19 377.06
  A 0.80 0.80 0.0 0 0 86.66 376.94
  C 84.55 382.35 83.93 389.24 82.93 394.99
  Q 82.59 396.91 80.75 397.49
  Q 74.35 399.53 67.91 401.75
  A 1.00 1.00 0.0 0 0 67.60 403.47
  C 70.44 405.79 78.22 406.72 82.10 408.33
  Q 82.59 408.53 82.68 408.91
  Z
  M 176.09 386.62
  A 4.91 4.91 0.0 0 0 171.18 381.71
  A 4.91 4.91 0.0 0 0 166.27 386.62
  A 4.91 4.91 0.0 0 0 171.18 391.53
  A 4.91 4.91 0.0 0 0 176.09 386.62
  Z
  M 422.5740 418.2740
  A 6.83 6.57 -2.4 0 0 415.4749 411.9958
  A 6.83 6.57 -2.4 0 0 408.9260 418.8460
  A 6.83 6.57 -2.4 0 0 416.0251 425.1242
  A 6.83 6.57 -2.4 0 0 422.5740 418.2740
  Z
  M 345.62 456.29
  A 4.93 4.93 0.0 0 0 340.69 451.36
  A 4.93 4.93 0.0 0 0 335.76 456.29
  A 4.93 4.93 0.0 0 0 340.69 461.22
  A 4.93 4.93 0.0 0 0 345.62 456.29
  Z
  M 100.4475 468.0494
  A 6.75 6.52 99.4 0 0 107.9825 462.4549
  A 6.75 6.52 99.4 0 0 102.6525 454.7306
  A 6.75 6.52 99.4 0 0 95.1175 460.3251
  A 6.75 6.52 99.4 0 0 100.4475 468.0494
  Z
  M 211.7306 468.0832
  A 6.16 6.16 0.0 0 0 205.9924 461.5285
  L 127.5851 456.3207
  A 6.16 6.16 0.0 0 0 121.0304 462.0589
  L 120.9694 462.9768
  A 6.16 6.16 0.0 0 0 126.7076 469.5315
  L 205.1149 474.7393
  A 6.16 6.16 0.0 0 0 211.6696 469.0011
  L 211.7306 468.0832
  Z
  M 237.71 469.61
  A 6.48 6.48 0.0 0 0 231.23 463.13
  A 6.48 6.48 0.0 0 0 224.75 469.61
  A 6.48 6.48 0.0 0 0 231.23 476.09
  A 6.48 6.48 0.0 0 0 237.71 469.61
  Z"
/>
<path fill="#074785" d="
  M 157.77 208.53
  C 167.24 178.39 212.51 187.80 206.74 220.29
  C 205.48 227.40 194.58 227.42 194.77 218.77
  C 194.89 212.90 194.85 208.05 189.76 204.69
  Q 185.64 201.97 179.88 203.01
  C 170.59 204.68 169.61 211.10 167.94 219.52
  C 166.50 226.73 157.58 226.17 156.03 219.74
  C 155.37 217.02 156.83 211.53 157.77 208.53
  Z"
/>
<path fill="#074785" d="
  M 284.24 218.57
  C 284.83 180.61 340.24 182.99 334.99 220.26
  C 333.96 227.56 322.85 228.00 323.06 218.52
  C 323.51 197.94 299.25 198.91 296.69 216.67
  C 296.34 219.06 296.40 222.34 294.81 224.16
  C 292.50 226.82 287.72 226.48 285.68 223.99
  Q 284.18 222.16 284.24 218.57
  Z"
/>
<path fill="#f1854f" d="
  M 398.75 197.04
  C 414.81 207.29 432.28 222.43 439.24 240.94
  Q 441.40 246.71 442.93 258.34
  Q 455.52 354.28 468.09 450.21
  Q 469.33 459.67 468.64 464.84
  C 466.39 481.45 454.12 494.23 438.62 499.95
  Q 433.12 501.99 421.62 503.29
  Q 357.74 510.54 295.68 511.64
  Q 283.54 511.86 280.44 512.00
  L 254.19 512.00
  Q 181.37 510.99 109.02 502.57
  C 91.37 500.51 76.16 489.10 64.12 477.32
  Q 75.13 482.83 84.32 483.90
  Q 243.90 502.55 403.48 483.81
  C 423.30 481.48 442.00 467.41 444.94 446.98
  Q 445.75 441.34 444.01 428.09
  Q 431.27 330.79 418.51 233.49
  Q 415.91 213.63 399.97 199.02
  Q 399.37 198.47 398.75 197.04
  Z"
/>
<circle fill="#ffffff" cx="101.54" cy="232.55" r="4.92"/>
<path fill="#074785" d="
  M 246.24 249.06
  C 253.58 249.47 255.42 239.71 255.80 233.76
  C 256.28 226.08 268.09 226.02 267.44 236.23
  C 266.91 244.56 263.57 254.80 255.83 259.17
  C 247.38 263.95 235.99 260.62 230.60 252.66
  Q 224.89 244.23 224.77 235.48
  C 224.70 230.29 232.15 228.53 235.27 232.13
  Q 236.32 233.34 236.96 236.68
  C 237.84 241.30 240.49 248.75 246.24 249.06
  Z"
/>
<ellipse fill="#fd6085" cx="0.00" cy="0.00" transform="translate(147.62,250.09) rotate(-3.2)" rx="25.58" ry="19.69"/>
<ellipse fill="#fd6085" cx="0.00" cy="0.00" transform="translate(342.75,250.92) rotate(-3.3)" rx="25.58" ry="19.70"/>
<path fill="#074785" d="
  M 265.25 363.66
  Q 280.31 394.30 295.26 424.99
  C 301.47 437.72 292.92 442.97 281.74 442.98
  Q 247.87 443.02 214.00 443.01
  C 202.33 443.01 193.90 437.17 200.00 424.88
  Q 215.09 394.41 230.26 363.75
  A 0.69 0.68 -66.2 0 0 229.90 362.81
  C 194.60 349.03 188.80 302.77 221.82 282.10
  C 256.70 260.27 306.14 290.76 293.75 332.74
  C 289.58 346.85 279.17 357.36 265.54 362.90
  Q 264.98 363.12 265.25 363.66
  Z
  M 269.33 350.84
  A 2.51 2.51 0.0 0 0 272.23 350.98
  C 292.17 338.35 289.21 308.29 276.17 292.36
  C 273.28 288.84 268.46 292.68 271.35 296.42
  C 281.51 309.55 285.14 332.91 270.24 344.51
  C 267.80 346.41 266.35 348.48 269.33 350.84
  Z
  M 264.0159 381.0626
  A 2.90 2.90 0.0 0 0 260.1405 379.7206
  L 259.9426 379.8167
  A 2.90 2.90 0.0 0 0 258.6006 383.6922
  L 279.1041 425.9174
  A 2.90 2.90 0.0 0 0 282.9795 427.2594
  L 283.1774 427.1633
  A 2.90 2.90 0.0 0 0 284.5194 423.2878
  L 264.0159 381.0626
  Z"
/>
<ellipse fill="#ffffff" cx="0.00" cy="0.00" transform="translate(396.87,285.80) rotate(-2.6)" rx="6.97" ry="6.73"/>
<path fill="#29aefd" d="
  M 269.33 350.84
  C 266.35 348.48 267.80 346.41 270.24 344.51
  C 285.14 332.91 281.51 309.55 271.35 296.42
  C 268.46 292.68 273.28 288.84 276.17 292.36
  C 289.21 308.29 292.17 338.35 272.23 350.98
  A 2.51 2.51 0.0 0 1 269.33 350.84
  Z"
/>
<path fill="#ffffff" d="
  M 125.25 325.78
  A 0.95 0.94 -46.4 0 1 125.21 324.02
  Q 130.78 321.69 137.01 320.05
  C 139.17 319.48 140.41 318.49 140.75 316.10
  Q 141.93 307.66 144.01 299.09
  A 0.81 0.81 0.0 0 1 145.58 299.06
  Q 147.98 307.50 149.50 316.68
  C 150.06 320.03 160.34 321.74 163.94 322.76
  A 1.38 1.36 82.5 0 1 164.75 323.39
  Q 165.84 325.23 162.99 326.10
  Q 157.13 327.86 151.21 329.77
  A 2.03 2.00 86.9 0 0 149.85 331.31
  C 148.77 336.96 148.27 345.03 145.87 350.24
  A 0.65 0.65 0.0 0 1 144.65 350.14
  Q 142.28 341.39 140.77 332.55
  C 140.50 330.99 139.49 329.73 138.03 329.43
  Q 131.71 328.11 125.25 325.78
  Z"
/>
<rect fill="#ffffff" x="-6.85" y="-46.98" transform="translate(406.26,352.11) rotate(-7.9)" width="13.70" height="93.96" rx="6.58"/>
<circle fill="#ffffff" cx="332.15" cy="314.43" r="4.92"/>
<circle fill="#ffffff" cx="87.55" cy="319.48" r="4.93"/>
<path fill="#ffffff" d="
  M 331.09 392.67
  A 0.68 0.68 0.0 0 1 330.98 391.55
  C 334.00 389.08 341.52 387.62 345.21 386.22
  A 1.92 1.90 -5.7 0 0 346.42 384.75
  C 347.14 380.45 348.03 369.64 350.20 366.38
  A 0.91 0.91 0.0 0 1 351.84 366.68
  Q 353.89 375.67 355.52 383.96
  C 356.34 388.14 367.60 388.01 370.83 390.51
  A 1.18 1.18 0.0 0 1 370.48 392.56
  L 357.03 396.98
  Q 356.56 397.13 356.34 397.57
  Q 355.60 398.99 355.52 399.50
  C 354.97 402.96 353.74 414.80 351.85 417.11
  A 0.88 0.88 0.0 0 1 350.31 416.74
  L 346.28 398.17
  A 1.19 1.17 -86.4 0 0 345.53 397.31
  C 340.89 395.63 335.29 394.97 331.09 392.67
  Z"
/>
<path fill="#ffffff" d="
  M 82.10 408.33
  C 78.22 406.72 70.44 405.79 67.60 403.47
  A 1.00 1.00 0.0 0 1 67.91 401.75
  Q 74.35 399.53 80.75 397.49
  Q 82.59 396.91 82.93 394.99
  C 83.93 389.24 84.55 382.35 86.66 376.94
  A 0.80 0.80 0.0 0 1 88.19 377.06
  L 92.18 395.48
  A 2.23 2.22 -88.0 0 0 93.73 397.15
  L 107.39 401.16
  Q 108.10 401.37 107.91 402.08
  C 107.37 404.06 95.80 407.06 93.62 407.78
  A 2.03 2.03 0.0 0 0 92.25 409.36
  C 91.18 415.28 90.59 423.20 88.15 428.57
  A 0.61 0.61 0.0 0 1 87.00 428.45
  L 82.68 408.91
  Q 82.59 408.53 82.10 408.33
  Z"
/>
<rect fill="#29aefd" x="-3.01" y="-26.37" transform="translate(271.56,403.49) rotate(-25.9)" width="6.02" height="52.74" rx="2.90"/>
<circle fill="#ffffff" cx="171.18" cy="386.62" r="4.91"/>
<ellipse fill="#ffffff" cx="0.00" cy="0.00" transform="translate(415.75,418.56) rotate(-2.4)" rx="6.83" ry="6.57"/>
<circle fill="#ffffff" cx="340.69" cy="456.29" r="4.93"/>
<ellipse fill="#ffffff" cx="0.00" cy="0.00" transform="translate(101.55,461.39) rotate(99.4)" rx="6.75" ry="6.52"/>
<rect fill="#ffffff" x="-45.45" y="-6.62" transform="translate(166.35,465.53) rotate(3.8)" width="90.90" height="13.24" rx="6.16"/>
<circle fill="#ffffff" cx="231.23" cy="469.61" r="6.48"/>
</svg>
